<svg width="46" height="37" viewBox="0 0 46 37" fill="none" xmlns="http://www.w3.org/2000/svg">
<g filter="url(#filter0_d)">
<path d="M38.4375 0.5C39.4271 0.5 40.2682 0.846354 40.9609 1.53906C41.6536 2.23177 42 3.07292 42 4.0625V25.4375C42 26.4271 41.6536 27.2682 40.9609 27.9609C40.2682 28.6536 39.4271 29 38.4375 29H7.5625C6.57292 29 5.73177 28.6536 5.03906 27.9609C4.34635 27.2682 4 26.4271 4 25.4375V4.0625C4 3.07292 4.34635 2.23177 5.03906 1.53906C5.73177 0.846354 6.57292 0.5 7.5625 0.5H38.4375ZM38.4375 4.0625H7.5625V7.10547C9.29427 8.49089 12.6341 11.1133 17.582 14.9727C17.582 15.0221 17.9284 15.3438 18.6211 15.9375C19.3138 16.4818 19.8333 16.8776 20.1797 17.125C20.526 17.3229 20.9714 17.5703 21.5156 17.8672C22.1094 18.1641 22.6042 18.3125 23 18.3125C23.3958 18.3125 23.8659 18.1641 24.4102 17.8672C25.0039 17.5703 25.474 17.3229 25.8203 17.125C26.1667 16.8776 26.6862 16.4818 27.3789 15.9375C28.0716 15.3438 28.418 15.0221 28.418 14.9727C33.3659 11.1133 36.7057 8.49089 38.4375 7.10547V4.0625ZM7.5625 25.4375H38.4375V11.6328C36.7057 13.0182 34.1081 15.0716 30.6445 17.793C30.5456 17.8424 30.1745 18.1393 29.5312 18.6836C28.9375 19.2279 28.4674 19.6237 28.1211 19.8711C27.7747 20.1185 27.2799 20.4401 26.6367 20.8359C25.9935 21.1823 25.375 21.4544 24.7812 21.6523C24.1875 21.8008 23.5938 21.875 23 21.875C22.4062 21.875 21.7878 21.8008 21.1445 21.6523C20.5508 21.4544 19.9323 21.1576 19.2891 20.7617C18.6953 20.3659 18.2253 20.0443 17.8789 19.7969C17.5326 19.5495 17.0378 19.1784 16.3945 18.6836C15.8008 18.1393 15.4544 17.8424 15.3555 17.793C11.8919 15.0716 9.29427 13.0182 7.5625 11.6328V25.4375Z" fill="white"/>
</g>
<defs>
<filter id="filter0_d" x="0" y="0.5" width="46" height="36.5" filterUnits="userSpaceOnUse" color-interpolation-filters="sRGB">
<feFlood flood-opacity="0" result="BackgroundImageFix"/>
<feColorMatrix in="SourceAlpha" type="matrix" values="0 0 0 0 0 0 0 0 0 0 0 0 0 0 0 0 0 0 127 0"/>
<feOffset dy="4"/>
<feGaussianBlur stdDeviation="2"/>
<feColorMatrix type="matrix" values="0 0 0 0 0 0 0 0 0 0 0 0 0 0 0 0 0 0 0.25 0"/>
<feBlend mode="normal" in2="BackgroundImageFix" result="effect1_dropShadow"/>
<feBlend mode="normal" in="SourceGraphic" in2="effect1_dropShadow" result="shape"/>
</filter>
</defs>
</svg>
